<svg width="375" height="120" viewBox="0 0 375 120" fill="none" xmlns="http://www.w3.org/2000/svg">
<path d="M178.567 61.4819C180.922 64.4146 182.1 67.7759 182.1 71.5637C182.1 74.9863 181.247 77.9952 179.543 80.5916C177.836 83.1892 175.372 85.2194 172.15 86.6857C168.925 88.1521 165.112 88.8858 160.711 88.8858H132.719V24.9138H159.502C163.903 24.9138 167.7 25.6175 170.894 27.0214C174.086 28.4276 176.504 30.3827 178.148 32.8867C179.79 35.393 180.612 38.2344 180.612 41.4097C180.612 45.1373 179.603 48.2537 177.589 50.7577C175.574 53.264 172.893 55.0354 169.545 56.073C173.203 56.7455 176.209 58.5469 178.565 61.4808L178.567 61.4819ZM145.739 51.3089H157.643C160.743 51.3089 163.13 50.6214 164.804 49.2463C166.478 47.8724 167.315 45.9011 167.315 43.3359C167.315 40.7707 166.478 38.7844 164.804 37.3782C163.13 35.9731 160.743 35.2705 157.643 35.2705H145.739V51.3089ZM166.245 76.2365C168.012 74.7702 168.895 72.6938 168.895 70.0049C168.895 67.316 167.965 65.1009 166.104 63.5433C164.245 61.9846 161.734 61.2069 158.572 61.2069H145.738V78.4366H158.851C162.013 78.4366 164.477 77.7029 166.244 76.2365H166.245Z" fill="white"/>
<path d="M205.907 85.3095C200.822 82.5005 196.793 78.6053 193.817 73.6251C190.841 68.646 189.353 63.0095 189.353 56.7155C189.353 50.4215 190.841 44.8785 193.817 39.8983C196.793 34.9193 200.822 31.0241 205.907 28.2139C210.99 25.4037 216.57 23.9975 222.646 23.9975C228.723 23.9975 234.378 25.4037 239.433 28.2139C244.485 31.0252 248.483 34.9204 251.429 39.8983C254.373 44.8785 255.847 50.4839 255.847 56.7155C255.847 62.9471 254.374 68.646 251.429 73.6251C248.484 78.6053 244.469 82.5005 239.386 85.3095C234.302 88.1209 228.722 89.526 222.646 89.526C216.571 89.526 210.99 88.1209 205.907 85.3095ZM232.969 75.4577C235.946 73.7164 238.271 71.2274 239.944 67.9874C241.618 64.7497 242.455 60.992 242.455 56.7143C242.455 52.4367 241.618 48.6952 239.944 45.4875C238.271 42.2798 235.946 39.8209 232.969 38.1096C229.993 36.3995 226.552 35.5432 222.646 35.5432C218.74 35.5432 215.283 36.3995 212.277 38.1096C209.269 39.8209 206.929 42.2798 205.255 45.4875C203.582 48.6952 202.745 52.439 202.745 56.7143C202.745 60.9897 203.582 64.7497 205.255 67.9874C206.929 71.2274 209.268 73.7152 212.277 75.4577C215.283 77.1991 218.74 78.0692 222.646 78.0692C226.552 78.0692 229.993 77.1991 232.969 75.4577Z" fill="white"/>
<path d="M278.536 78.7116H299.926V88.8846H265.517V24.9138H278.536V78.7116Z" fill="white"/>
<path d="M348.888 28.854C354.064 31.4816 358.063 35.2243 360.885 40.0809C363.706 44.9386 365.116 50.574 365.116 56.9893C365.116 63.4047 363.706 69.0112 360.885 73.8077C358.063 78.6041 354.064 82.3168 348.888 84.9432C343.711 87.5708 337.713 88.8835 330.894 88.8835H308.202V24.9138H330.894C337.713 24.9138 343.711 26.2287 348.888 28.854ZM346.238 72.4788C349.958 68.8124 351.818 63.6508 351.818 56.9905C351.818 50.3302 349.957 45.1223 346.238 41.3646C342.518 37.6069 337.248 35.7281 330.429 35.7281H321.222V77.9779H330.429C337.248 77.9779 342.519 76.1452 346.238 72.4788Z" fill="white"/>
<path d="M66.4076 46.6904H62.9984L65.6914 43.0933C70.107 37.1968 70.7907 29.4514 67.4767 22.8789C64.1638 16.3064 57.516 12.2241 50.1287 12.2241H20.0387V57.15L55.141 57.1627H55.1572L66.4088 57.1523C75.738 57.1523 83.3273 64.7069 83.3273 73.9937C83.3273 83.2805 75.738 90.8363 66.4088 90.8363H30.7122L49.3127 67.4143C46.3584 67.4143 36.2236 67.3993 36.2236 67.3993L9.06345 101.299H66.4088C81.5327 101.299 93.8382 89.0511 93.8382 73.9949C93.8382 58.9387 81.5338 46.6904 66.4088 46.6904H66.4076ZM57.2652 36.8409L49.8907 46.6904H49.8675L49.8606 46.6996L30.5497 46.6927V22.6883H50.1299C53.5681 22.6883 56.5421 24.514 58.0836 27.5737C59.6263 30.6335 59.3198 34.0977 57.2652 36.842V36.8409Z" fill="#0055FF"/>
</svg>
